<mxfile host="app.diagrams.net" modified="2025-07-16T15:50:44.937Z" agent="Mozilla/5.0 (Macintosh; Intel Mac OS X 10_15_7) AppleWebKit/537.36 (KHTML, like Gecko) Chrome/138.0.0.0 Safari/537.36" etag="HowRKHLZjCucH1HQ0a4w" border="50" scale="3" compressed="false" locked="false" version="24.6.4" type="device">
  <diagram name="Blank" id="YmL12bMKpDGza6XwsDPr">
    <mxGraphModel dx="2052" dy="1300" grid="0" gridSize="10" guides="1" tooltips="1" connect="1" arrows="1" fold="1" page="1" pageScale="1" pageWidth="1654" pageHeight="1169" background="#ffffff" math="1" shadow="0">
      <root>
        <mxCell id="X5NqExCQtvZxIxQ7pmgY-0" />
        <mxCell id="1" parent="X5NqExCQtvZxIxQ7pmgY-0" />
        <mxCell id="Y9Gfqj8upMgGAD7Wy7NI-181" value="" style="whiteSpace=wrap;html=1;strokeColor=#000000;fontColor=#EEEEEE;fillColor=none;strokeWidth=3;rounded=0;glass=0;opacity=30;movable=0;resizable=0;rotatable=0;deletable=0;editable=0;locked=1;connectable=0;" vertex="1" parent="1">
          <mxGeometry x="344" y="241" width="967" height="658" as="geometry" />
        </mxCell>
        <mxCell id="Y9Gfqj8upMgGAD7Wy7NI-172" value="" style="group;movable=0;resizable=0;rotatable=0;deletable=0;editable=0;locked=1;connectable=0;" vertex="1" connectable="0" parent="1">
          <mxGeometry x="440" y="295" width="770" height="559.5" as="geometry" />
        </mxCell>
        <mxCell id="Y9Gfqj8upMgGAD7Wy7NI-109" style="edgeStyle=orthogonalEdgeStyle;rounded=0;orthogonalLoop=1;jettySize=auto;html=1;strokeColor=#CC00CC;endArrow=none;endFill=0;exitX=1;exitY=0.5;exitDx=0;exitDy=0;entryX=0;entryY=0.5;entryDx=0;entryDy=0;dashed=1;opacity=60;" edge="1" parent="Y9Gfqj8upMgGAD7Wy7NI-172" source="Y9Gfqj8upMgGAD7Wy7NI-18" target="Y9Gfqj8upMgGAD7Wy7NI-127">
          <mxGeometry relative="1" as="geometry">
            <mxPoint x="284.55" y="48.660000000000025" as="sourcePoint" />
            <mxPoint x="510" y="139.5" as="targetPoint" />
            <Array as="points" />
          </mxGeometry>
        </mxCell>
        <mxCell id="Y9Gfqj8upMgGAD7Wy7NI-131" style="edgeStyle=orthogonalEdgeStyle;rounded=0;orthogonalLoop=1;jettySize=auto;html=1;exitX=0.5;exitY=1;exitDx=0;exitDy=0;entryX=0.5;entryY=0;entryDx=0;entryDy=0;strokeColor=#CC00CC;endArrow=none;endFill=0;opacity=60;strokeWidth=1;" edge="1" parent="Y9Gfqj8upMgGAD7Wy7NI-172" source="Y9Gfqj8upMgGAD7Wy7NI-18" target="Y9Gfqj8upMgGAD7Wy7NI-130">
          <mxGeometry relative="1" as="geometry" />
        </mxCell>
        <mxCell id="Y9Gfqj8upMgGAD7Wy7NI-18" value="" style="swimlane;startSize=0;fillColor=#292929;strokeColor=#36393d;fillStyle=auto;swimlaneLine=1;container=0;strokeWidth=1;" vertex="1" parent="Y9Gfqj8upMgGAD7Wy7NI-172">
          <mxGeometry width="260" height="80" as="geometry" />
        </mxCell>
        <mxCell id="Y9Gfqj8upMgGAD7Wy7NI-28" value="&lt;p style=&quot;line-height: 100%;&quot;&gt;&lt;font color=&quot;#191919&quot;&gt;&lt;b&gt;UPLOAD FILES&lt;/b&gt;&lt;/font&gt;&lt;/p&gt;" style="text;html=1;align=center;verticalAlign=middle;resizable=0;points=[];autosize=1;strokeColor=none;fillColor=none;fontColor=#EEEEEE;" vertex="1" parent="Y9Gfqj8upMgGAD7Wy7NI-18">
          <mxGeometry x="100.50999999999999" y="15" width="110" height="50" as="geometry" />
        </mxCell>
        <mxCell id="Y9Gfqj8upMgGAD7Wy7NI-5" value="&lt;font style=&quot;font-size: 8px;&quot;&gt;Amazon S3&lt;/font&gt;" style="sketch=0;outlineConnect=0;fontColor=#232F3E;gradientColor=none;strokeColor=#ffffff;fillColor=#BA5D00;dashed=0;verticalLabelPosition=middle;verticalAlign=bottom;align=center;html=1;whiteSpace=wrap;fontSize=10;fontStyle=1;spacing=3;shape=mxgraph.aws4.productIcon;prIcon=mxgraph.aws4.s3;" vertex="1" parent="Y9Gfqj8upMgGAD7Wy7NI-18">
          <mxGeometry x="34.510000000000005" y="6" width="56" height="70" as="geometry" />
        </mxCell>
        <mxCell id="Y9Gfqj8upMgGAD7Wy7NI-160" style="edgeStyle=orthogonalEdgeStyle;rounded=0;orthogonalLoop=1;jettySize=auto;html=1;exitX=1;exitY=0.5;exitDx=0;exitDy=0;strokeColor=#006600;endArrow=none;endFill=0;dashed=1;opacity=60;" edge="1" parent="Y9Gfqj8upMgGAD7Wy7NI-172" source="Y9Gfqj8upMgGAD7Wy7NI-48" target="Y9Gfqj8upMgGAD7Wy7NI-154">
          <mxGeometry relative="1" as="geometry" />
        </mxCell>
        <mxCell id="Y9Gfqj8upMgGAD7Wy7NI-161" style="edgeStyle=orthogonalEdgeStyle;rounded=0;orthogonalLoop=1;jettySize=auto;html=1;exitX=0.5;exitY=1;exitDx=0;exitDy=0;entryX=0.5;entryY=0;entryDx=0;entryDy=0;strokeColor=#000000;" edge="1" parent="Y9Gfqj8upMgGAD7Wy7NI-172" source="Y9Gfqj8upMgGAD7Wy7NI-48" target="Y9Gfqj8upMgGAD7Wy7NI-59">
          <mxGeometry relative="1" as="geometry" />
        </mxCell>
        <mxCell id="Y9Gfqj8upMgGAD7Wy7NI-48" value="" style="swimlane;startSize=0;fillColor=#292929;strokeColor=#36393d;fillStyle=auto;swimlaneLine=1;" vertex="1" parent="Y9Gfqj8upMgGAD7Wy7NI-172">
          <mxGeometry y="239.5" width="260" height="80" as="geometry">
            <mxRectangle x="168" y="600" width="50" height="40" as="alternateBounds" />
          </mxGeometry>
        </mxCell>
        <mxCell id="Y9Gfqj8upMgGAD7Wy7NI-50" value="&lt;p style=&quot;line-height: 100%;&quot;&gt;&lt;font color=&quot;#191919&quot;&gt;&lt;b&gt;GENERATE QUERY&lt;/b&gt;&lt;/font&gt;&lt;/p&gt;" style="text;html=1;align=center;verticalAlign=middle;resizable=0;points=[];autosize=1;strokeColor=none;fillColor=none;fontColor=#EEEEEE;" vertex="1" parent="Y9Gfqj8upMgGAD7Wy7NI-48">
          <mxGeometry x="100.51" y="15" width="130" height="50" as="geometry" />
        </mxCell>
        <mxCell id="Y9Gfqj8upMgGAD7Wy7NI-55" value="" style="sketch=0;pointerEvents=1;shadow=0;dashed=0;html=1;strokeColor=none;fillColor=#505050;labelPosition=center;verticalLabelPosition=bottom;verticalAlign=top;outlineConnect=0;align=center;shape=mxgraph.office.services.excel_services;fontColor=#EEEEEE;aspect=fixed;" vertex="1" parent="Y9Gfqj8upMgGAD7Wy7NI-48">
          <mxGeometry x="34.510000000000005" y="17.139999999999993" width="56" height="45.73" as="geometry" />
        </mxCell>
        <mxCell id="Y9Gfqj8upMgGAD7Wy7NI-59" value="" style="swimlane;startSize=0;fillColor=#292929;strokeColor=#36393d;fillStyle=auto;swimlaneLine=1;" vertex="1" parent="Y9Gfqj8upMgGAD7Wy7NI-172">
          <mxGeometry y="479.5" width="260" height="80" as="geometry">
            <mxRectangle x="168" y="600" width="50" height="40" as="alternateBounds" />
          </mxGeometry>
        </mxCell>
        <mxCell id="Y9Gfqj8upMgGAD7Wy7NI-60" value="&lt;p style=&quot;line-height: 100%;&quot;&gt;&lt;font color=&quot;#191919&quot;&gt;&lt;b&gt;EXEC QUERY&lt;/b&gt;&lt;/font&gt;&lt;/p&gt;" style="text;html=1;align=center;verticalAlign=middle;resizable=0;points=[];autosize=1;strokeColor=none;fillColor=none;fontColor=#EEEEEE;" vertex="1" parent="Y9Gfqj8upMgGAD7Wy7NI-59">
          <mxGeometry x="97.51" y="15" width="100" height="50" as="geometry" />
        </mxCell>
        <mxCell id="Y9Gfqj8upMgGAD7Wy7NI-61" value="" style="sketch=0;outlineConnect=0;fontColor=#232F3E;gradientColor=none;fillColor=#007FFF;strokeColor=none;dashed=0;verticalLabelPosition=bottom;verticalAlign=top;align=center;html=1;fontSize=12;fontStyle=0;aspect=fixed;pointerEvents=1;shape=mxgraph.aws4.rds_mysql_instance;" vertex="1" parent="Y9Gfqj8upMgGAD7Wy7NI-59">
          <mxGeometry x="34.510000000000005" y="12" width="56" height="56" as="geometry" />
        </mxCell>
        <mxCell id="Y9Gfqj8upMgGAD7Wy7NI-129" style="edgeStyle=orthogonalEdgeStyle;rounded=0;orthogonalLoop=1;jettySize=auto;html=1;strokeColor=#CC00CC;endArrow=none;endFill=0;entryX=1;entryY=0.5;entryDx=0;entryDy=0;exitX=1;exitY=0.5;exitDx=0;exitDy=0;dashed=1;opacity=60;" edge="1" parent="Y9Gfqj8upMgGAD7Wy7NI-172" source="Y9Gfqj8upMgGAD7Wy7NI-127" target="Y9Gfqj8upMgGAD7Wy7NI-130">
          <mxGeometry relative="1" as="geometry">
            <mxPoint x="210" y="209.5" as="targetPoint" />
            <mxPoint x="620" y="129.5" as="sourcePoint" />
            <Array as="points">
              <mxPoint x="770" y="40.5" />
              <mxPoint x="770" y="159.5" />
              <mxPoint x="159" y="159.5" />
            </Array>
          </mxGeometry>
        </mxCell>
        <mxCell id="Y9Gfqj8upMgGAD7Wy7NI-127" value="" style="swimlane;startSize=0;strokeColor=#FF00FF;fontColor=#EEEEEE;fillColor=#09555B;strokeWidth=1;" vertex="1" parent="Y9Gfqj8upMgGAD7Wy7NI-172">
          <mxGeometry x="370" width="320" height="80" as="geometry" />
        </mxCell>
        <mxCell id="Y9Gfqj8upMgGAD7Wy7NI-126" value="" style="group;movable=1;resizable=1;rotatable=1;deletable=1;editable=1;locked=0;connectable=1;" vertex="1" connectable="0" parent="Y9Gfqj8upMgGAD7Wy7NI-127">
          <mxGeometry x="26" y="18.390000000000043" width="270" height="38.5" as="geometry" />
        </mxCell>
        <mxCell id="Y9Gfqj8upMgGAD7Wy7NI-15" value="&lt;font color=&quot;#006600&quot;&gt;S3_URL&lt;/font&gt;" style="rounded=1;whiteSpace=wrap;html=1;strokeColor=#006600;fontColor=#EEEEEE;fillColor=none;" vertex="1" parent="Y9Gfqj8upMgGAD7Wy7NI-126">
          <mxGeometry x="73.99955845921824" y="10.24604204050241" width="78.57114221826819" height="22" as="geometry" />
        </mxCell>
        <mxCell id="Y9Gfqj8upMgGAD7Wy7NI-68" value="CF_URL" style="rounded=1;whiteSpace=wrap;html=1;strokeColor=#007FFF;fontColor=#007FFF;fillColor=none;" vertex="1" parent="Y9Gfqj8upMgGAD7Wy7NI-126">
          <mxGeometry x="191.42885778173175" y="10.243634965393433" width="78.57114221826819" height="22" as="geometry" />
        </mxCell>
        <mxCell id="Y9Gfqj8upMgGAD7Wy7NI-119" style="edgeStyle=orthogonalEdgeStyle;rounded=0;orthogonalLoop=1;jettySize=auto;html=1;strokeColor=#FF2E2E;strokeWidth=4;endArrow=block;endFill=1;endSize=1;startSize=6;jumpSize=6;" edge="1" parent="Y9Gfqj8upMgGAD7Wy7NI-126">
          <mxGeometry relative="1" as="geometry">
            <mxPoint x="39.99976132930715" y="23.810000000000002" as="sourcePoint" />
            <mxPoint x="66.39960380664985" y="23.860000000000014" as="targetPoint" />
            <Array as="points">
              <mxPoint x="59.99964199396073" y="23.810000000000002" />
              <mxPoint x="59.99964199396073" y="23.810000000000002" />
            </Array>
          </mxGeometry>
        </mxCell>
        <mxCell id="Y9Gfqj8upMgGAD7Wy7NI-123" value="" style="sketch=0;pointerEvents=1;shadow=0;dashed=0;html=1;strokeColor=none;fillColor=#006600;labelPosition=center;verticalLabelPosition=bottom;verticalAlign=top;outlineConnect=0;align=center;shape=mxgraph.office.concepts.upload;fontColor=#007FFF;" vertex="1" parent="Y9Gfqj8upMgGAD7Wy7NI-126">
          <mxGeometry width="33.599799516618006" height="38.5" as="geometry" />
        </mxCell>
        <mxCell id="Y9Gfqj8upMgGAD7Wy7NI-125" style="edgeStyle=orthogonalEdgeStyle;rounded=0;orthogonalLoop=1;jettySize=auto;html=1;strokeColor=#FF2E2E;strokeWidth=4;endArrow=block;endFill=1;endSize=1;startSize=6;jumpSize=6;" edge="1" parent="Y9Gfqj8upMgGAD7Wy7NI-126">
          <mxGeometry relative="1" as="geometry">
            <mxPoint x="159.9990453172286" y="24.060000000000002" as="sourcePoint" />
            <mxPoint x="186.3988877945713" y="24.110000000000014" as="targetPoint" />
            <Array as="points">
              <mxPoint x="179.99892598188217" y="24.060000000000002" />
              <mxPoint x="179.99892598188217" y="24.060000000000002" />
            </Array>
          </mxGeometry>
        </mxCell>
        <mxCell id="Y9Gfqj8upMgGAD7Wy7NI-132" style="edgeStyle=orthogonalEdgeStyle;rounded=0;orthogonalLoop=1;jettySize=auto;html=1;exitX=0.5;exitY=1;exitDx=0;exitDy=0;entryX=0.5;entryY=0;entryDx=0;entryDy=0;strokeColor=#000000;strokeWidth=1;" edge="1" parent="Y9Gfqj8upMgGAD7Wy7NI-172" source="Y9Gfqj8upMgGAD7Wy7NI-130" target="Y9Gfqj8upMgGAD7Wy7NI-48">
          <mxGeometry relative="1" as="geometry" />
        </mxCell>
        <mxCell id="Y9Gfqj8upMgGAD7Wy7NI-130" value="" style="rhombus;whiteSpace=wrap;html=1;strokeColor=#CC00CC;fontColor=#EEEEEE;fillColor=none;" vertex="1" parent="Y9Gfqj8upMgGAD7Wy7NI-172">
          <mxGeometry x="110.35" y="139.5" width="39.3" height="39.3" as="geometry" />
        </mxCell>
        <mxCell id="Y9Gfqj8upMgGAD7Wy7NI-162" style="edgeStyle=orthogonalEdgeStyle;rounded=0;orthogonalLoop=1;jettySize=auto;html=1;exitX=1;exitY=0.5;exitDx=0;exitDy=0;strokeColor=#006600;endArrow=none;endFill=0;dashed=1;opacity=60;" edge="1" parent="Y9Gfqj8upMgGAD7Wy7NI-172" source="Y9Gfqj8upMgGAD7Wy7NI-154">
          <mxGeometry relative="1" as="geometry">
            <mxPoint x="130" y="399.5" as="targetPoint" />
            <Array as="points">
              <mxPoint x="770" y="279.5" />
              <mxPoint x="770" y="399.5" />
              <mxPoint x="140" y="399.5" />
            </Array>
          </mxGeometry>
        </mxCell>
        <mxCell id="Y9Gfqj8upMgGAD7Wy7NI-154" value="" style="swimlane;startSize=0;strokeColor=#006600;fontColor=#EEEEEE;fillColor=#09555B;" vertex="1" parent="Y9Gfqj8upMgGAD7Wy7NI-172">
          <mxGeometry x="370" y="239.5" width="210" height="80" as="geometry" />
        </mxCell>
        <mxCell id="Y9Gfqj8upMgGAD7Wy7NI-155" value="" style="group" vertex="1" connectable="0" parent="Y9Gfqj8upMgGAD7Wy7NI-154">
          <mxGeometry x="25.57000000000005" y="17.139999999999986" width="160" height="45" as="geometry" />
        </mxCell>
        <mxCell id="Y9Gfqj8upMgGAD7Wy7NI-87" value="&lt;font color=&quot;#cc00cc&quot;&gt;SQL&lt;/font&gt;" style="shape=note;whiteSpace=wrap;html=1;backgroundOutline=1;darkOpacity=0.05;strokeColor=#CC00CC;fontColor=#EEEEEE;fillColor=none;size=11;aspect=fixed;" vertex="1" parent="Y9Gfqj8upMgGAD7Wy7NI-155">
          <mxGeometry x="117.0012048192771" y="2.5" width="30.84" height="40" as="geometry" />
        </mxCell>
        <mxCell id="Y9Gfqj8upMgGAD7Wy7NI-150" value="CF_URL" style="rounded=1;whiteSpace=wrap;html=1;strokeColor=#007FFF;fontColor=#007FFF;fillColor=none;" vertex="1" parent="Y9Gfqj8upMgGAD7Wy7NI-155">
          <mxGeometry y="11.50363496539349" width="75.73167328847164" height="22" as="geometry" />
        </mxCell>
        <mxCell id="Y9Gfqj8upMgGAD7Wy7NI-153" style="edgeStyle=orthogonalEdgeStyle;rounded=0;orthogonalLoop=1;jettySize=auto;html=1;strokeColor=#FF2E2E;strokeWidth=4;endArrow=block;endFill=1;endSize=1;startSize=6;jumpSize=6;" edge="1" parent="Y9Gfqj8upMgGAD7Wy7NI-155">
          <mxGeometry relative="1" as="geometry">
            <mxPoint x="82.7469879518072" y="22.210000000000036" as="sourcePoint" />
            <mxPoint x="108.19277108433731" y="22.260000000000048" as="targetPoint" />
            <Array as="points">
              <mxPoint x="102.02409638554215" y="22.210000000000036" />
              <mxPoint x="102.02409638554215" y="22.210000000000036" />
            </Array>
          </mxGeometry>
        </mxCell>
        <mxCell id="Y9Gfqj8upMgGAD7Wy7NI-156" value="" style="edgeLabel;html=1;align=center;verticalAlign=middle;resizable=0;points=[];strokeColor=#BAC8D3;fontColor=#EEEEEE;fillColor=#09555B;" vertex="1" connectable="0" parent="Y9Gfqj8upMgGAD7Wy7NI-153">
          <mxGeometry x="-0.0372" y="-4" relative="1" as="geometry">
            <mxPoint as="offset" />
          </mxGeometry>
        </mxCell>
        <mxCell id="Y9Gfqj8upMgGAD7Wy7NI-163" value="" style="swimlane;startSize=0;strokeColor=#007FFF;fontColor=#EEEEEE;fillColor=#007FFF;" vertex="1" parent="Y9Gfqj8upMgGAD7Wy7NI-172">
          <mxGeometry x="370" y="479.5" width="210" height="80" as="geometry" />
        </mxCell>
        <mxCell id="Y9Gfqj8upMgGAD7Wy7NI-170" value="" style="group" vertex="1" connectable="0" parent="Y9Gfqj8upMgGAD7Wy7NI-163">
          <mxGeometry x="48.50120481927706" y="19.5" width="112.99879518072294" height="41" as="geometry" />
        </mxCell>
        <mxCell id="Y9Gfqj8upMgGAD7Wy7NI-165" value="&lt;font color=&quot;#cc00cc&quot;&gt;SQL&lt;/font&gt;" style="shape=note;whiteSpace=wrap;html=1;backgroundOutline=1;darkOpacity=0.05;strokeColor=#CC00CC;fontColor=#EEEEEE;fillColor=none;size=11;aspect=fixed;" vertex="1" parent="Y9Gfqj8upMgGAD7Wy7NI-170">
          <mxGeometry width="30.84" height="40" as="geometry" />
        </mxCell>
        <mxCell id="Y9Gfqj8upMgGAD7Wy7NI-167" style="edgeStyle=orthogonalEdgeStyle;rounded=0;orthogonalLoop=1;jettySize=auto;html=1;strokeColor=#FF2E2E;strokeWidth=4;endArrow=block;endFill=1;endSize=1;startSize=6;jumpSize=6;" edge="1" parent="Y9Gfqj8upMgGAD7Wy7NI-170">
          <mxGeometry relative="1" as="geometry">
            <mxPoint x="40.745783132530164" y="21.82000000000005" as="sourcePoint" />
            <mxPoint x="66.19156626506026" y="21.870000000000005" as="targetPoint" />
            <Array as="points">
              <mxPoint x="60.022891566265116" y="21.82000000000005" />
              <mxPoint x="60.022891566265116" y="21.82000000000005" />
            </Array>
          </mxGeometry>
        </mxCell>
        <mxCell id="Y9Gfqj8upMgGAD7Wy7NI-168" value="" style="edgeLabel;html=1;align=center;verticalAlign=middle;resizable=0;points=[];strokeColor=#BAC8D3;fontColor=#EEEEEE;fillColor=#09555B;" vertex="1" connectable="0" parent="Y9Gfqj8upMgGAD7Wy7NI-167">
          <mxGeometry x="-0.0372" y="-4" relative="1" as="geometry">
            <mxPoint as="offset" />
          </mxGeometry>
        </mxCell>
        <mxCell id="Y9Gfqj8upMgGAD7Wy7NI-169" value="" style="shape=datastore;whiteSpace=wrap;html=1;strokeColor=#006600;fontColor=#EEEEEE;fillColor=none;aspect=fixed;strokeWidth=1;" vertex="1" parent="Y9Gfqj8upMgGAD7Wy7NI-170">
          <mxGeometry x="74.99879518072294" y="3" width="38" height="38" as="geometry" />
        </mxCell>
        <mxCell id="Y9Gfqj8upMgGAD7Wy7NI-171" style="edgeStyle=orthogonalEdgeStyle;rounded=0;orthogonalLoop=1;jettySize=auto;html=1;exitX=1;exitY=0.5;exitDx=0;exitDy=0;entryX=-0.02;entryY=0.499;entryDx=0;entryDy=0;entryPerimeter=0;strokeColor=#007FFF;endArrow=none;endFill=0;dashed=1;" edge="1" parent="Y9Gfqj8upMgGAD7Wy7NI-172" source="Y9Gfqj8upMgGAD7Wy7NI-59" target="Y9Gfqj8upMgGAD7Wy7NI-163">
          <mxGeometry relative="1" as="geometry" />
        </mxCell>
        <mxCell id="Y9Gfqj8upMgGAD7Wy7NI-175" value="" style="group" vertex="1" connectable="0" parent="1">
          <mxGeometry x="760" y="955" width="74.93" height="119" as="geometry" />
        </mxCell>
        <mxCell id="Y9Gfqj8upMgGAD7Wy7NI-37" value="" style="group" vertex="1" connectable="0" parent="Y9Gfqj8upMgGAD7Wy7NI-175">
          <mxGeometry x="15.426764705882272" width="44.06177843137255" height="29.38271604938272" as="geometry" />
        </mxCell>
        <mxCell id="Y9Gfqj8upMgGAD7Wy7NI-38" value="" style="group" vertex="1" connectable="0" parent="Y9Gfqj8upMgGAD7Wy7NI-37">
          <mxGeometry x="4.742642499524028" y="-1.8966692819946889" width="34.576493432324405" height="33.17605461337217" as="geometry" />
        </mxCell>
        <mxCell id="Y9Gfqj8upMgGAD7Wy7NI-33" value="" style="triangle;whiteSpace=wrap;html=1;strokeColor=none;fontColor=#EEEEEE;fillColor=#EE2020;rotation=90;" vertex="1" parent="Y9Gfqj8upMgGAD7Wy7NI-38">
          <mxGeometry x="8.477213015439194" y="7.078193259635207" width="17.622067401446024" height="34.574613448399866" as="geometry" />
        </mxCell>
        <mxCell id="Y9Gfqj8upMgGAD7Wy7NI-35" value="" style="triangle;whiteSpace=wrap;html=1;strokeColor=none;fontColor=#EEEEEE;fillColor=#EE2020;rotation=90;" vertex="1" parent="Y9Gfqj8upMgGAD7Wy7NI-38">
          <mxGeometry x="8.477213015439194" y="-8.476752094662908" width="17.622067401446024" height="34.574613448399866" as="geometry" />
        </mxCell>
        <mxCell id="Y9Gfqj8upMgGAD7Wy7NI-174" value="" style="sketch=0;pointerEvents=1;shadow=0;dashed=0;html=1;strokeColor=none;fillColor=#005F4B;labelPosition=center;verticalLabelPosition=bottom;verticalAlign=top;align=center;outlineConnect=0;shape=mxgraph.veeam2.monitor;fontColor=#EEEEEE;" vertex="1" parent="Y9Gfqj8upMgGAD7Wy7NI-175">
          <mxGeometry y="60.23456790123457" width="74.93" height="58.76543209876544" as="geometry" />
        </mxCell>
        <mxCell id="Y9Gfqj8upMgGAD7Wy7NI-180" value="" style="group" vertex="1" connectable="0" parent="1">
          <mxGeometry x="770" y="95" width="72.68" height="111" as="geometry" />
        </mxCell>
        <mxCell id="Y9Gfqj8upMgGAD7Wy7NI-176" value="" style="group" vertex="1" connectable="0" parent="Y9Gfqj8upMgGAD7Wy7NI-180">
          <mxGeometry x="14.145823132395993" y="81.4" width="44.38596935943025" height="29.6" as="geometry" />
        </mxCell>
        <mxCell id="Y9Gfqj8upMgGAD7Wy7NI-177" value="" style="group" vertex="1" connectable="0" parent="Y9Gfqj8upMgGAD7Wy7NI-176">
          <mxGeometry x="4.777537179859306" y="-1.9106950716430529" width="34.83089499971154" height="33.42139014328618" as="geometry" />
        </mxCell>
        <mxCell id="Y9Gfqj8upMgGAD7Wy7NI-178" value="" style="triangle;whiteSpace=wrap;html=1;strokeColor=none;fontColor=#EEEEEE;fillColor=#EE2020;rotation=90;" vertex="1" parent="Y9Gfqj8upMgGAD7Wy7NI-177">
          <mxGeometry x="8.539585340221736" y="7.13053620138713" width="17.751724319268078" height="34.83029126213593" as="geometry" />
        </mxCell>
        <mxCell id="Y9Gfqj8upMgGAD7Wy7NI-179" value="" style="triangle;whiteSpace=wrap;html=1;strokeColor=none;fontColor=#EEEEEE;fillColor=#EE2020;rotation=90;" vertex="1" parent="Y9Gfqj8upMgGAD7Wy7NI-177">
          <mxGeometry x="8.539585340221736" y="-8.539437320236885" width="17.751724319268078" height="34.83029126213593" as="geometry" />
        </mxCell>
        <mxCell id="Y9Gfqj8upMgGAD7Wy7NI-14" value="z" style="group" vertex="1" connectable="0" parent="Y9Gfqj8upMgGAD7Wy7NI-180">
          <mxGeometry width="72.68000000000004" height="48.458523455524215" as="geometry" />
        </mxCell>
        <mxCell id="Y9Gfqj8upMgGAD7Wy7NI-7" value="" style="strokeWidth=2;html=1;shape=mxgraph.flowchart.document2;whiteSpace=wrap;size=0.25;strokeColor=#BAC8D3;fontColor=#EEEEEE;fillColor=#09555B;" vertex="1" parent="Y9Gfqj8upMgGAD7Wy7NI-14">
          <mxGeometry x="12.113333333333339" width="60.5666666666667" height="36.34389259164316" as="geometry" />
        </mxCell>
        <mxCell id="Y9Gfqj8upMgGAD7Wy7NI-8" value="" style="strokeWidth=2;html=1;shape=mxgraph.flowchart.document2;whiteSpace=wrap;size=0.25;strokeColor=#BAC8D3;fontColor=#EEEEEE;fillColor=#09555B;" vertex="1" parent="Y9Gfqj8upMgGAD7Wy7NI-14">
          <mxGeometry x="6.056666666666669" y="6.057315431940527" width="60.5666666666667" height="36.34389259164316" as="geometry" />
        </mxCell>
        <mxCell id="Y9Gfqj8upMgGAD7Wy7NI-9" value="" style="strokeWidth=2;html=1;shape=mxgraph.flowchart.document2;whiteSpace=wrap;size=0.25;strokeColor=#BAC8D3;fontColor=#EEEEEE;fillColor=#09555B;" vertex="1" parent="Y9Gfqj8upMgGAD7Wy7NI-14">
          <mxGeometry y="12.114630863881054" width="60.5666666666667" height="36.34389259164316" as="geometry" />
        </mxCell>
      </root>
    </mxGraphModel>
  </diagram>
</mxfile>
